<svg xmlns="http://www.w3.org/2000/svg" version="1.1" xmlns:xlink="http://www.w3.org/1999/xlink" xmlns:svgjs="http://svgjs.dev/svgjs" width="32" height="32"><svg width="32" height="32" viewBox="0 0 32 32" fill="none" xmlns="http://www.w3.org/2000/svg">
<rect width="32" height="32" rx="5" fill="#333132"></rect>
<path d="M13.3333 6.66667C13.3333 7.19196 13.2299 7.7121 13.0289 8.1974C12.8278 8.6827 12.5332 9.12366 12.1618 9.4951C11.7903 9.86653 11.3494 10.1612 10.8641 10.3622C10.3788 10.5632 9.85862 10.6667 9.33333 10.6667C8.80805 10.6667 8.2879 10.5632 7.8026 10.3622C7.3173 10.1612 6.87634 9.86653 6.50491 9.4951C6.13347 9.12366 5.83883 8.6827 5.63781 8.1974C5.4368 7.7121 5.33333 7.19196 5.33333 6.66667C5.33333 5.6058 5.75476 4.58839 6.50491 3.83824C7.25505 3.0881 8.27247 2.66667 9.33333 2.66667C10.3942 2.66667 11.4116 3.0881 12.1618 3.83824C12.9119 4.58839 13.3333 5.6058 13.3333 6.66667ZM16 18.6667C16.5253 18.6667 17.0454 18.5632 17.5307 18.3622C18.016 18.1612 18.457 17.8665 18.8284 17.4951C19.1999 17.1237 19.4945 16.6827 19.6955 16.1974C19.8965 15.7121 20 15.192 20 14.6667C20 14.1414 19.8965 13.6212 19.6955 13.1359C19.4945 12.6506 19.1999 12.2097 18.8284 11.8382C18.457 11.4668 18.016 11.1722 17.5307 10.9711C17.0454 10.7701 16.5253 10.6667 16 10.6667C14.9391 10.6667 13.9217 11.0881 13.1716 11.8382C12.4214 12.5884 12 13.6058 12 14.6667C12 15.7275 12.4214 16.745 13.1716 17.4951C13.9217 18.2452 14.9391 18.6667 16 18.6667ZM9.46667 13.3333H5.33333C4.62609 13.3333 3.94781 13.6143 3.44771 14.1144C2.94762 14.6145 2.66667 15.2928 2.66667 16V16.552C2.66667 18.1413 3.58133 19.448 4.792 20.304C5.51733 20.8187 6.384 21.2 7.33067 21.424C8.048 20.1227 9.29333 19.1573 10.776 18.808C10.1701 18.0471 9.73874 17.1623 9.51249 16.2163C9.28623 15.2703 9.27059 14.2861 9.46667 13.3333ZM21.2267 18.808C21.9511 18.9792 22.6317 19.3002 23.2246 19.7503C23.8175 20.2004 24.3097 20.7696 24.6693 21.4213C25.616 21.2 26.4827 20.8187 27.208 20.304C28.4187 19.4507 29.3333 18.1413 29.3333 16.552V16C29.3333 15.2928 29.0524 14.6145 28.5523 14.1144C28.0522 13.6143 27.3739 13.3333 26.6667 13.3333H22.5333C22.7261 14.286 22.7091 15.2693 22.4834 16.2147C22.2578 17.1601 21.8289 18.0451 21.2267 18.808ZM12 21.3333C11.2928 21.3333 10.6145 21.6143 10.1144 22.1144C9.61428 22.6145 9.33333 23.2928 9.33333 24V24.4453C9.33333 26.0107 10.2853 27.2667 11.488 28.0667C12.7013 28.88 14.3013 29.3333 16 29.3333C17.6987 29.3333 19.2987 28.8773 20.512 28.0667C21.712 27.2667 22.6667 26.0107 22.6667 24.4453V24C22.6667 23.2928 22.3857 22.6145 21.8856 22.1144C21.3855 21.6143 20.7072 21.3333 20 21.3333H12ZM24 10.6667C25.0609 10.6667 26.0783 10.2452 26.8284 9.4951C27.5786 8.74495 28 7.72753 28 6.66667C28 5.6058 27.5786 4.58839 26.8284 3.83824C26.0783 3.0881 25.0609 2.66667 24 2.66667C22.9391 2.66667 21.9217 3.0881 21.1716 3.83824C20.4214 4.58839 20 5.6058 20 6.66667C20 7.72753 20.4214 8.74495 21.1716 9.4951C21.9217 10.2452 22.9391 10.6667 24 10.6667Z" fill="#00F782"></path>
</svg><style>@media (prefers-color-scheme: light) { :root { filter: none; } }
@media (prefers-color-scheme: dark) { :root { filter: none; } }
</style></svg>